# xmcd
#
# Track frame offsets: 
#        150
#        10950
#        27495
#        51645
#        64333
#        79559
#        100602
#        113170
#        135899
#        152966
#
# Disc length: 2336 seconds
#
# Revision: 5
# Processed by: cddbd v1.5.2PL0 Copyright (c) Steve Scherf et al.
# Submitted via: ExactAudioCopyFreeDBPlugin 1.0
#
DISCID=7d091e0a
DTITLE=Stevie Ray Vaughan And Double Trouble - The Complete Epic Recor
DTITLE=dings Collection
DYEAR=1983
DGENRE=Blues
TTITLE0=Love Struck Baby
TTITLE1=Pride and Joy
TTITLE2=Texas Flood
TTITLE3=Tell Me
TTITLE4=Testify
TTITLE5=Rude Mood
TTITLE6=Mary Had a Little Lamb
TTITLE7=Dirty Pool
TTITLE8=I'm Cryin'
TTITLE9=Lenny
EXTD=
EXTT0=
EXTT1=
EXTT2=
EXTT3=
EXTT4=
EXTT5=
EXTT6=
EXTT7=
EXTT8=
EXTT9=
PLAYORDER=
